<svg width="36" height="36" viewBox="0 0 36 36" fill="none" xmlns="http://www.w3.org/2000/svg">
<g clip-path="url(#clip0_1843_314)">
<path d="M18 36C27.9411 36 36 27.9411 36 18C36 8.05887 27.9411 0 18 0C8.05887 0 0 8.05887 0 18C0 27.9411 8.05887 36 18 36Z" fill="#DBDBE7"/>
<path d="M26.1509 25.0713C29.8575 25.0713 32.8623 22.0665 32.8623 18.3599C32.8623 14.6532 29.8575 11.6484 26.1509 11.6484C22.4443 11.6484 19.4395 14.6532 19.4395 18.3599C19.4395 22.0665 22.4443 25.0713 26.1509 25.0713Z" fill="white"/>
<path d="M24.3334 22.1922C26.4494 22.1922 28.1648 20.4768 28.1648 18.3607C28.1648 16.2447 26.4494 14.5293 24.3334 14.5293C22.2173 14.5293 20.502 16.2447 20.502 18.3607C20.502 20.4768 22.2173 22.1922 24.3334 22.1922Z" fill="#282828"/>
<path d="M22.9107 18.5402C23.706 18.5402 24.3507 17.8954 24.3507 17.1002C24.3507 16.3049 23.706 15.6602 22.9107 15.6602C22.1154 15.6602 21.4707 16.3049 21.4707 17.1002C21.4707 17.8954 22.1154 18.5402 22.9107 18.5402Z" fill="white"/>
<path d="M9.84815 25.0713C13.5548 25.0713 16.5596 22.0665 16.5596 18.3599C16.5596 14.6532 13.5548 11.6484 9.84815 11.6484C6.14153 11.6484 3.13672 14.6532 3.13672 18.3599C3.13672 22.0665 6.14153 25.0713 9.84815 25.0713Z" fill="white"/>
<path d="M11.6654 22.1922C13.7815 22.1922 15.4968 20.4768 15.4968 18.3607C15.4968 16.2447 13.7815 14.5293 11.6654 14.5293C9.54937 14.5293 7.83398 16.2447 7.83398 18.3607C7.83398 20.4768 9.54937 22.1922 11.6654 22.1922Z" fill="#282828"/>
<path d="M13.0884 18.5402C13.8837 18.5402 14.5284 17.8954 14.5284 17.1002C14.5284 16.3049 13.8837 15.6602 13.0884 15.6602C12.2931 15.6602 11.6484 16.3049 11.6484 17.1002C11.6484 17.8954 12.2931 18.5402 13.0884 18.5402Z" fill="white"/>
<path d="M19.9201 21.9434C19.7486 22.8519 18.9686 23.5376 18.0001 23.5376C17.0315 23.5376 16.2515 22.8519 16.0801 21.9434H19.9115H19.9201Z" fill="#FF9696"/>
</g>
<defs>
<clipPath id="clip0_1843_314">
<rect width="36" height="36" fill="white"/>
</clipPath>
</defs>
</svg>
