<svg width="current" height="current" viewBox="0 0 375 320" fill="none" xmlns="http://www.w3.org/2000/svg">
<g clip-path="url(#clip0_1_41049)">
<rect width="375" height="320" fill="current"/>
<g opacity="0.16">
<path d="M-19.4017 132.721C-19.3063 132.633 -19.2121 132.542 -19.1196 132.449C-19.027 132.357 -18.9362 132.263 -18.8476 132.167L0.748636 112.571C7.52865 105.791 7.69772 94.9681 1.12699 88.3974C0.163405 87.4338 -0.890699 86.6157 -2.01084 85.9421L-33.5418 117.473C-33.6371 117.562 -33.7313 117.652 -33.8239 117.745C-33.9164 117.838 -34.0073 117.932 -34.0959 118.027C-38.0167 122.229 -38.0295 128.712 -34.0586 132.683C-30.0877 136.654 -23.605 136.641 -19.4022 132.721L-19.4017 132.721Z" fill="white" fill-opacity="0.9"/>
<path d="M58.5178 108.987C59.0145 109.483 59.5508 109.918 60.1172 110.29C54.5842 113.821 47.5763 113.968 42.1172 110.683L58.752 94.0481C54.5626 98.2374 54.4578 104.926 58.5178 108.987Z" fill="white" fill-opacity="0.5"/>
<path d="M59.5095 63.9046C59.4141 63.9932 59.3199 64.084 59.2274 64.1766C59.1348 64.2691 59.0439 64.3634 58.9553 64.4587L39.3591 84.0549C32.5791 90.8349 32.4101 101.658 38.9808 108.228C39.9444 109.192 40.9985 110.01 42.1186 110.684L73.6495 79.1529C73.7449 79.0643 73.8391 78.9734 73.9316 78.8809C74.0242 78.7883 74.115 78.6941 74.2036 78.5988C78.1239 74.396 78.1367 67.9133 74.1658 63.9424C70.1949 59.9715 63.7122 59.9843 59.5095 63.9046Z" fill="white" fill-opacity="0.9"/>
<path d="M79.0727 87.6414C78.5761 87.1448 78.0397 86.7103 77.4734 86.3383C83.0063 82.8065 90.0143 82.6596 95.4734 85.9451L78.8386 102.58C83.0279 98.3905 83.1328 91.7015 79.0727 87.6414Z" fill="white" fill-opacity="0.5"/>
<path d="M78.0944 132.721C78.1897 132.633 78.284 132.542 78.3765 132.449C78.4691 132.357 78.5599 132.263 78.6485 132.167L98.2447 112.571C105.025 105.791 105.194 94.9681 98.6231 88.3974C97.6595 87.4338 96.6054 86.6157 95.4853 85.9421L63.9543 117.473C63.859 117.562 63.7648 117.652 63.6722 117.745C63.5797 117.838 63.4888 117.932 63.4002 118.027C59.4794 122.229 59.4666 128.712 63.4375 132.683C67.4084 136.654 73.8911 136.641 78.0939 132.721L78.0944 132.721Z" fill="white" fill-opacity="0.9"/>
<path d="M156.01 108.987C156.507 109.483 157.043 109.918 157.609 110.29C152.076 113.821 145.068 113.968 139.609 110.683L156.244 94.0481C152.055 98.2374 151.95 104.926 156.01 108.987Z" fill="white" fill-opacity="0.5"/>
<path d="M157.002 63.9046C156.906 63.9932 156.812 64.084 156.72 64.1766C156.627 64.2691 156.536 64.3634 156.448 64.4587L136.851 84.0549C130.071 90.8349 129.902 101.658 136.473 108.228C137.437 109.192 138.491 110.01 139.611 110.684L171.142 79.1529C171.237 79.0643 171.331 78.9734 171.424 78.8809C171.516 78.7883 171.607 78.6941 171.696 78.5988C175.616 74.396 175.629 67.9133 171.658 63.9424C167.687 59.9715 161.204 59.9843 157.002 63.9046Z" fill="white" fill-opacity="0.9"/>
<path d="M176.565 87.6414C176.068 87.1448 175.532 86.7103 174.966 86.3383C180.498 82.8065 187.506 82.6596 192.966 85.9451L176.331 102.58C180.52 98.3905 180.625 91.7015 176.565 87.6414Z" fill="white" fill-opacity="0.5"/>
<path d="M175.587 132.721C175.682 132.633 175.776 132.542 175.869 132.449C175.961 132.357 176.052 132.263 176.141 132.167L195.737 112.571C202.517 105.791 202.686 94.9681 196.115 88.3974C195.152 87.4338 194.098 86.6157 192.977 85.9421L161.447 117.473C161.351 117.562 161.257 117.652 161.164 117.745C161.072 117.838 160.981 117.932 160.892 118.027C156.972 122.229 156.959 128.712 160.93 132.683C164.901 136.654 171.383 136.641 175.586 132.721L175.587 132.721Z" fill="white" fill-opacity="0.9"/>
<path d="M253.506 108.987C254.003 109.483 254.539 109.918 255.105 110.29C249.573 113.821 242.565 113.968 237.105 110.683L253.74 94.0481C249.551 98.2374 249.446 104.926 253.506 108.987Z" fill="white" fill-opacity="0.5"/>
<path d="M254.498 63.9046C254.402 63.9932 254.308 64.084 254.216 64.1766C254.123 64.2691 254.032 64.3634 253.944 64.4587L234.347 84.0549C227.567 90.8349 227.398 101.658 233.969 108.228C234.933 109.192 235.987 110.01 237.107 110.684L268.638 79.1529C268.733 79.0643 268.827 78.9734 268.92 78.8809C269.012 78.7883 269.103 78.6941 269.192 78.5988C273.112 74.396 273.125 67.9133 269.154 63.9424C265.183 59.9715 258.701 59.9843 254.498 63.9046Z" fill="white" fill-opacity="0.9"/>
<path d="M274.061 87.6414C273.564 87.1448 273.028 86.7103 272.462 86.3383C277.995 82.8065 285.003 82.6596 290.462 85.9451L273.827 102.58C278.016 98.3905 278.121 91.7015 274.061 87.6414Z" fill="white" fill-opacity="0.5"/>
<path d="M273.083 132.721C273.178 132.633 273.272 132.542 273.365 132.449C273.457 132.357 273.548 132.263 273.637 132.167L293.233 112.571C300.013 105.791 300.182 94.9681 293.611 88.3974C292.648 87.4338 291.594 86.6157 290.474 85.9421L258.943 117.473C258.847 117.562 258.753 117.652 258.661 117.745C258.568 117.838 258.477 117.932 258.389 118.027C254.468 122.229 254.455 128.712 258.426 132.683C262.397 136.654 268.879 136.641 273.082 132.721L273.083 132.721Z" fill="white" fill-opacity="0.9"/>
<path d="M351.002 108.987C351.499 109.483 352.035 109.918 352.602 110.29C347.069 113.821 340.061 113.968 334.602 110.683L351.236 94.0481C347.047 98.2374 346.942 104.926 351.002 108.987Z" fill="white" fill-opacity="0.5"/>
<path d="M351.994 63.9046C351.898 63.9932 351.804 64.084 351.712 64.1766C351.619 64.2691 351.528 64.3634 351.44 64.4587L331.844 84.0549C325.064 90.8349 324.894 101.658 331.465 108.228C332.429 109.192 333.483 110.01 334.603 110.684L366.134 79.1529C366.229 79.0643 366.323 78.9734 366.416 78.8809C366.509 78.7883 366.599 78.6941 366.688 78.5988C370.608 74.396 370.621 67.9133 366.65 63.9424C362.679 59.9715 356.197 59.9843 351.994 63.9046Z" fill="white" fill-opacity="0.9"/>
<path d="M371.557 87.6414C371.06 87.1448 370.524 86.7103 369.958 86.3383C375.491 82.8065 382.499 82.6596 387.958 85.9451L371.323 102.58C375.512 98.3905 375.617 91.7015 371.557 87.6414Z" fill="white" fill-opacity="0.5"/>
<path d="M370.579 132.721C370.674 132.633 370.768 132.542 370.861 132.449C370.953 132.357 371.044 132.263 371.133 132.167L390.729 112.571C397.509 105.791 397.678 94.9681 391.107 88.3974C390.144 87.4338 389.09 86.6157 387.97 85.9421L356.439 117.473C356.343 117.562 356.249 117.652 356.157 117.745C356.064 117.838 355.973 117.932 355.885 118.027C351.964 122.229 351.951 128.712 355.922 132.683C359.893 136.654 366.375 136.641 370.578 132.721L370.579 132.721Z" fill="white" fill-opacity="0.9"/>
<path d="M3.17017 42.3967C3.66681 42.8933 4.20315 43.3278 4.76949 43.6998C-0.763427 47.2316 -7.77138 47.3785 -13.2305 44.093L3.40433 27.4582C-0.785028 31.6476 -0.889878 38.3366 3.17017 42.3967Z" fill="white" fill-opacity="0.5"/>
<path d="M4.1618 -2.68528C4.06646 -2.59667 3.97224 -2.50581 3.8797 -2.41327C3.78715 -2.32072 3.69629 -2.22649 3.60769 -2.13117L-15.9885 17.465C-22.7685 24.245 -22.9376 35.0679 -16.3669 41.6386C-15.4033 42.6022 -14.3492 43.4203 -13.229 44.0939L18.3019 12.563C18.3972 12.4744 18.4914 12.3836 18.584 12.291C18.6765 12.1985 18.7674 12.1042 18.856 12.0089C22.7763 7.80613 22.7891 1.32349 18.8181 -2.64742C14.8472 -6.61834 8.36458 -6.60554 4.1618 -2.68528Z" fill="white" fill-opacity="0.9"/>
<path d="M23.7251 21.0516C23.2284 20.555 22.6921 20.1204 22.1257 19.7484C27.6587 16.2166 34.6666 16.0698 40.1257 19.3552L23.4909 35.99C27.6803 31.8007 27.7851 25.1116 23.7251 21.0516Z" fill="white" fill-opacity="0.5"/>
<path d="M22.7468 66.1314C22.8421 66.0428 22.9363 65.952 23.0289 65.8594C23.1214 65.7669 23.2123 65.6727 23.3009 65.5773L42.8971 45.9811C49.6771 39.2011 49.8462 28.3783 43.2754 21.8075C42.3118 20.844 41.2577 20.0258 40.1376 19.3522L8.60668 50.8831C8.51135 50.9718 8.41712 51.0626 8.32458 51.1552C8.23204 51.2477 8.14118 51.3419 8.05257 51.4373C4.13174 55.6395 4.11894 62.1221 8.08986 66.093C12.0608 70.064 18.5434 70.0512 22.7462 66.1309L22.7468 66.1314Z" fill="white" fill-opacity="0.9"/>
<path d="M100.666 42.3967C101.163 42.8933 101.699 43.3278 102.266 43.6998C96.7327 47.2316 89.7247 47.3785 84.2656 44.093L100.9 27.4582C96.7111 31.6476 96.6062 38.3366 100.666 42.3967Z" fill="white" fill-opacity="0.5"/>
<path d="M101.658 -2.68528C101.563 -2.59667 101.468 -2.50581 101.376 -2.41327C101.283 -2.32072 101.192 -2.22649 101.104 -2.13117L81.5076 17.465C74.7276 24.245 74.5585 35.0679 81.1292 41.6386C82.0928 42.6022 83.1469 43.4203 84.2671 44.0939L115.798 12.563C115.893 12.4744 115.988 12.3836 116.08 12.291C116.173 12.1985 116.263 12.1042 116.352 12.0089C120.272 7.80613 120.285 1.32349 116.314 -2.64742C112.343 -6.61834 105.861 -6.60554 101.658 -2.68528Z" fill="white" fill-opacity="0.9"/>
<path d="M121.221 21.0516C120.725 20.555 120.188 20.1204 119.622 19.7484C125.155 16.2166 132.163 16.0698 137.622 19.3552L120.987 35.99C125.176 31.8007 125.281 25.1116 121.221 21.0516Z" fill="white" fill-opacity="0.5"/>
<path d="M120.243 66.1314C120.338 66.0428 120.432 65.952 120.525 65.8594C120.617 65.7669 120.708 65.6727 120.797 65.5773L140.393 45.9811C147.173 39.2011 147.342 28.3783 140.772 21.8075C139.808 20.844 138.754 20.0258 137.634 19.3522L106.103 50.8831C106.007 50.9718 105.913 51.0626 105.821 51.1552C105.728 51.2477 105.637 51.3419 105.549 51.4373C101.628 55.6395 101.615 62.1221 105.586 66.093C109.557 70.064 116.04 70.0512 120.242 66.1309L120.243 66.1314Z" fill="white" fill-opacity="0.9"/>
<path d="M198.158 42.3967C198.655 42.8933 199.191 43.3278 199.758 43.6998C194.225 47.2316 187.217 47.3785 181.758 44.093L198.393 27.4582C194.203 31.6476 194.098 38.3366 198.158 42.3967Z" fill="white" fill-opacity="0.5"/>
<path d="M199.15 -2.68528C199.055 -2.59667 198.961 -2.50581 198.868 -2.41327C198.775 -2.32072 198.685 -2.22649 198.596 -2.13117L179 17.465C172.22 24.245 172.051 35.0679 178.621 41.6386C179.585 42.6022 180.639 43.4203 181.759 44.0939L213.29 12.563C213.385 12.4744 213.48 12.3836 213.572 12.291C213.665 12.1985 213.756 12.1042 213.844 12.0089C217.765 7.80613 217.777 1.32349 213.806 -2.64742C209.835 -6.61834 203.353 -6.60554 199.15 -2.68528Z" fill="white" fill-opacity="0.9"/>
<path d="M218.713 21.0516C218.217 20.555 217.68 20.1204 217.114 19.7484C222.647 16.2166 229.655 16.0698 235.114 19.3552L218.479 35.99C222.669 31.8007 222.773 25.1116 218.713 21.0516Z" fill="white" fill-opacity="0.5"/>
<path d="M217.735 66.1314C217.83 66.0428 217.925 65.952 218.017 65.8594C218.11 65.7669 218.201 65.6727 218.289 65.5773L237.885 45.9811C244.665 39.2011 244.834 28.3783 238.264 21.8075C237.3 20.844 236.246 20.0258 235.126 19.3522L203.595 50.8831C203.5 50.9718 203.405 51.0626 203.313 51.1552C203.22 51.2477 203.129 51.3419 203.041 51.4373C199.12 55.6395 199.107 62.1221 203.078 66.093C207.049 70.064 213.532 70.0512 217.734 66.1309L217.735 66.1314Z" fill="white" fill-opacity="0.9"/>
<path d="M295.655 42.3967C296.151 42.8933 296.688 43.3278 297.254 43.6998C291.721 47.2316 284.713 47.3785 279.254 44.093L295.889 27.4582C291.699 31.6476 291.594 38.3366 295.655 42.3967Z" fill="white" fill-opacity="0.5"/>
<path d="M296.646 -2.68528C296.551 -2.59667 296.457 -2.50581 296.364 -2.41327C296.272 -2.32072 296.181 -2.22649 296.092 -2.13117L276.496 17.465C269.716 24.245 269.547 35.0679 276.118 41.6386C277.081 42.6022 278.135 43.4203 279.255 44.0939L310.786 12.563C310.882 12.4744 310.976 12.3836 311.068 12.291C311.161 12.1985 311.252 12.1042 311.34 12.0089C315.261 7.80613 315.273 1.32349 311.303 -2.64742C307.332 -6.61834 300.849 -6.60554 296.646 -2.68528Z" fill="white" fill-opacity="0.9"/>
<path d="M316.209 21.0516C315.713 20.555 315.176 20.1204 314.61 19.7484C320.143 16.2166 327.151 16.0698 332.61 19.3552L315.975 35.99C320.165 31.8007 320.269 25.1116 316.209 21.0516Z" fill="white" fill-opacity="0.5"/>
<path d="M315.231 66.1314C315.326 66.0428 315.421 65.952 315.513 65.8594C315.606 65.7669 315.697 65.6727 315.785 65.5773L335.381 45.9811C342.161 39.2011 342.331 28.3783 335.76 21.8075C334.796 20.844 333.742 20.0258 332.622 19.3522L301.091 50.8831C300.996 50.9718 300.901 51.0626 300.809 51.1552C300.716 51.2477 300.626 51.3419 300.537 51.4373C296.616 55.6395 296.603 62.1221 300.574 66.093C304.545 70.064 311.028 70.0512 315.231 66.1309L315.231 66.1314Z" fill="white" fill-opacity="0.9"/>
<path d="M394.142 -2.68528C394.047 -2.59667 393.953 -2.50581 393.86 -2.41327C393.768 -2.32072 393.677 -2.22649 393.588 -2.13117L373.992 17.465C367.212 24.245 367.043 35.0679 373.614 41.6386C374.577 42.6022 375.631 43.4203 376.751 44.0939L408.282 12.563C408.378 12.4744 408.472 12.3836 408.564 12.291C408.657 12.1985 408.748 12.1042 408.836 12.0089C412.757 7.80613 412.77 1.32349 408.799 -2.64742C404.828 -6.61834 398.345 -6.60554 394.142 -2.68528Z" fill="white" fill-opacity="0.9"/>
<path d="M-5.21635 220.821C-5.71299 220.325 -6.24933 219.89 -6.81568 219.518C-1.28275 215.986 5.72521 215.839 11.1843 219.125L-5.45051 235.76C-1.26115 231.57 -1.1563 224.881 -5.21635 220.821Z" fill="white" fill-opacity="0.5"/>
<path d="M-6.19464 265.901C-6.09932 265.812 -6.00509 265.722 -5.91254 265.629C-5.82 265.537 -5.72914 265.442 -5.64054 265.347L13.9557 245.751C20.7357 238.971 20.9048 228.148 14.334 221.577C13.3704 220.614 12.3163 219.795 11.1962 219.122L-20.3347 250.653C-20.4301 250.741 -20.5243 250.832 -20.6168 250.925C-20.7094 251.017 -20.8002 251.112 -20.8888 251.207C-24.8097 255.409 -24.8225 261.892 -20.8515 265.863C-16.8806 269.834 -10.398 269.821 -6.19521 265.901L-6.19464 265.901Z" fill="white" fill-opacity="0.9"/>
<path d="M71.7209 242.166C72.2176 242.663 72.7539 243.097 73.3203 243.469C67.7874 247.001 60.7794 247.148 55.3203 243.863L71.9551 227.228C67.7658 231.417 67.6609 238.106 71.7209 242.166Z" fill="white" fill-opacity="0.5"/>
<path d="M72.7126 197.084C72.6172 197.173 72.523 197.264 72.4305 197.356C72.3379 197.449 72.2471 197.543 72.1585 197.638L52.5623 217.235C45.7823 224.015 45.6132 234.837 52.1839 241.408C53.1475 242.372 54.2016 243.19 55.3217 243.863L86.8527 212.333C86.948 212.244 87.0422 212.153 87.1348 212.061C87.2273 211.968 87.3182 211.874 87.4068 211.778C91.327 207.576 91.3398 201.093 87.3689 197.122C83.398 193.151 76.9154 193.164 72.7126 197.084Z" fill="white" fill-opacity="0.9"/>
<path d="M92.2758 220.821C91.7792 220.324 91.2429 219.89 90.6765 219.518C96.2094 215.986 103.217 215.839 108.676 219.125L92.0417 235.76C96.231 231.57 96.3359 224.881 92.2758 220.821Z" fill="white" fill-opacity="0.5"/>
<path d="M91.2975 265.901C91.3929 265.812 91.4871 265.722 91.5796 265.629C91.6722 265.536 91.763 265.442 91.8516 265.347L111.448 245.751C118.228 238.971 118.397 228.148 111.826 221.577C110.863 220.613 109.809 219.795 108.688 219.122L77.1575 250.653C77.0621 250.741 76.9679 250.832 76.8754 250.925C76.7828 251.017 76.692 251.111 76.6034 251.207C72.6825 255.409 72.6697 261.892 76.6406 265.863C80.6116 269.833 87.0942 269.821 91.297 265.9L91.2975 265.901Z" fill="white" fill-opacity="0.9"/>
<path d="M169.217 242.166C169.714 242.663 170.25 243.097 170.816 243.469C165.283 247.001 158.275 247.148 152.816 243.863L169.451 227.228C165.262 231.417 165.157 238.106 169.217 242.166Z" fill="white" fill-opacity="0.5"/>
<path d="M170.209 197.084C170.113 197.173 170.019 197.264 169.927 197.356C169.834 197.449 169.743 197.543 169.655 197.638L150.058 217.235C143.278 224.015 143.109 234.837 149.68 241.408C150.644 242.372 151.698 243.19 152.818 243.863L184.349 212.333C184.444 212.244 184.538 212.153 184.631 212.061C184.723 211.968 184.814 211.874 184.903 211.778C188.823 207.576 188.836 201.093 184.865 197.122C180.894 193.151 174.411 193.164 170.209 197.084Z" fill="white" fill-opacity="0.9"/>
<path d="M189.772 220.821C189.275 220.324 188.739 219.89 188.173 219.518C193.706 215.986 200.713 215.839 206.173 219.125L189.538 235.76C193.727 231.57 193.832 224.881 189.772 220.821Z" fill="white" fill-opacity="0.5"/>
<path d="M188.794 265.901C188.889 265.812 188.983 265.722 189.076 265.629C189.168 265.536 189.259 265.442 189.348 265.347L208.944 245.751C215.724 238.971 215.893 228.148 209.322 221.577C208.359 220.613 207.305 219.795 206.184 219.122L174.654 250.653C174.558 250.741 174.464 250.832 174.371 250.925C174.279 251.017 174.188 251.111 174.099 251.207C170.179 255.409 170.166 261.892 174.137 265.863C178.108 269.833 184.59 269.821 188.793 265.9L188.794 265.901Z" fill="white" fill-opacity="0.9"/>
<path d="M266.713 242.166C267.21 242.663 267.746 243.097 268.312 243.469C262.78 247.001 255.772 247.148 250.312 243.863L266.947 227.228C262.758 231.417 262.653 238.106 266.713 242.166Z" fill="white" fill-opacity="0.5"/>
<path d="M267.705 197.084C267.609 197.173 267.515 197.264 267.423 197.356C267.33 197.449 267.239 197.543 267.151 197.638L247.554 217.235C240.774 224.015 240.605 234.837 247.176 241.408C248.14 242.372 249.194 243.19 250.314 243.863L281.845 212.333C281.94 212.244 282.034 212.153 282.127 212.061C282.219 211.968 282.31 211.874 282.399 211.778C286.319 207.576 286.332 201.093 282.361 197.122C278.39 193.151 271.908 193.164 267.705 197.084Z" fill="white" fill-opacity="0.9"/>
<path d="M287.268 220.821C286.771 220.324 286.235 219.89 285.669 219.518C291.202 215.986 298.21 215.839 303.669 219.125L287.034 235.76C291.223 231.57 291.328 224.881 287.268 220.821Z" fill="white" fill-opacity="0.5"/>
<path d="M286.29 265.901C286.385 265.812 286.479 265.722 286.572 265.629C286.664 265.536 286.755 265.442 286.844 265.347L306.44 245.751C313.22 238.971 313.389 228.148 306.818 221.577C305.855 220.613 304.801 219.795 303.681 219.122L272.15 250.653C272.054 250.741 271.96 250.832 271.868 250.925C271.775 251.017 271.684 251.111 271.596 251.207C267.675 255.409 267.662 261.892 271.633 265.863C275.604 269.833 282.086 269.821 286.289 265.9L286.29 265.901Z" fill="white" fill-opacity="0.9"/>
<path d="M364.209 242.166C364.706 242.663 365.242 243.097 365.809 243.469C360.276 247.001 353.268 247.148 347.809 243.863L364.443 227.228C360.254 231.417 360.149 238.106 364.209 242.166Z" fill="white" fill-opacity="0.5"/>
<path d="M365.201 197.084C365.106 197.173 365.011 197.264 364.919 197.356C364.826 197.449 364.735 197.543 364.647 197.638L345.051 217.235C338.271 224.015 338.101 234.837 344.672 241.408C345.636 242.372 346.69 243.19 347.81 243.863L379.341 212.333C379.436 212.244 379.53 212.153 379.623 212.061C379.716 211.968 379.806 211.874 379.895 211.778C383.815 207.576 383.828 201.093 379.857 197.122C375.886 193.151 369.404 193.164 365.201 197.084Z" fill="white" fill-opacity="0.9"/>
<path d="M383.786 265.901C383.881 265.812 383.975 265.722 384.068 265.629C384.16 265.536 384.251 265.442 384.34 265.347L403.936 245.751C410.716 238.971 410.885 228.148 404.314 221.577C403.351 220.613 402.297 219.795 401.177 219.122L369.646 250.653C369.55 250.741 369.456 250.832 369.364 250.925C369.271 251.017 369.18 251.111 369.092 251.207C365.171 255.409 365.158 261.892 369.129 265.863C373.1 269.833 379.582 269.821 383.785 265.9L383.786 265.901Z" fill="white" fill-opacity="0.9"/>
<path d="M16.3733 175.576C16.8699 176.073 17.4063 176.508 17.9726 176.88C12.4397 180.411 5.43174 180.558 -0.0273438 177.273L16.6075 160.638C12.4181 164.827 12.3132 171.516 16.3733 175.576Z" fill="white" fill-opacity="0.5"/>
<path d="M17.3649 130.494C17.2696 130.583 17.1754 130.674 17.0828 130.766C16.9903 130.859 16.8994 130.953 16.8108 131.049L-2.78539 150.645C-9.5654 157.425 -9.73448 168.248 -3.16374 174.818C-2.20016 175.782 -1.14605 176.6 -0.0259142 177.274L31.505 145.743C31.6003 145.654 31.6946 145.563 31.7871 145.471C31.8796 145.378 31.9705 145.284 32.0591 145.189C35.9794 140.986 35.9922 134.503 32.0213 130.532C28.0503 126.561 21.5677 126.574 17.3649 130.494Z" fill="white" fill-opacity="0.9"/>
<path d="M36.9282 154.231C36.4315 153.735 35.8952 153.3 35.3289 152.928C40.8618 149.396 47.8697 149.249 53.3288 152.535L36.694 169.17C40.8834 164.98 40.9882 158.291 36.9282 154.231Z" fill="white" fill-opacity="0.5"/>
<path d="M35.9499 199.311C36.0452 199.223 36.1394 199.132 36.232 199.039C36.3245 198.947 36.4154 198.852 36.504 198.757L56.1002 179.161C62.8802 172.381 63.0493 161.558 56.4785 154.987C55.515 154.024 54.4609 153.206 53.3407 152.532L21.8098 184.063C21.7145 184.151 21.6202 184.242 21.5277 184.335C21.4352 184.427 21.3443 184.522 21.2557 184.617C17.3349 188.819 17.3221 195.302 21.293 199.273C25.2639 203.244 31.7465 203.231 35.9493 199.311L35.9499 199.311Z" fill="white" fill-opacity="0.9"/>
<path d="M113.865 175.576C114.362 176.073 114.898 176.508 115.465 176.88C109.932 180.411 102.924 180.558 97.4648 177.273L114.1 160.638C109.91 164.827 109.805 171.516 113.865 175.576Z" fill="white" fill-opacity="0.5"/>
<path d="M114.857 130.494C114.762 130.583 114.668 130.674 114.575 130.766C114.482 130.859 114.392 130.953 114.303 131.049L94.7068 150.645C87.9268 157.425 87.7577 168.248 94.3284 174.818C95.292 175.782 96.3461 176.6 97.4663 177.274L128.997 145.743C129.093 145.654 129.187 145.563 129.279 145.471C129.372 145.378 129.463 145.284 129.551 145.189C133.472 140.986 133.484 134.503 129.513 130.532C125.543 126.561 119.06 126.574 114.857 130.494Z" fill="white" fill-opacity="0.9"/>
<path d="M134.42 154.231C133.924 153.735 133.387 153.3 132.821 152.928C138.354 149.396 145.362 149.249 150.821 152.535L134.186 169.17C138.376 164.98 138.48 158.291 134.42 154.231Z" fill="white" fill-opacity="0.5"/>
<path d="M133.442 199.311C133.537 199.223 133.632 199.132 133.724 199.039C133.817 198.947 133.908 198.852 133.996 198.757L153.592 179.161C160.372 172.381 160.541 161.558 153.971 154.987C153.007 154.024 151.953 153.206 150.833 152.532L119.302 184.063C119.207 184.151 119.112 184.242 119.02 184.335C118.927 184.427 118.836 184.522 118.748 184.617C114.827 188.819 114.814 195.302 118.785 199.273C122.756 203.244 129.239 203.231 133.442 199.311L133.442 199.311Z" fill="white" fill-opacity="0.9"/>
<path d="M211.362 175.576C211.858 176.073 212.395 176.508 212.961 176.88C207.428 180.411 200.42 180.558 194.961 177.273L211.596 160.638C207.406 164.827 207.302 171.516 211.362 175.576Z" fill="white" fill-opacity="0.5"/>
<path d="M212.353 130.494C212.258 130.583 212.164 130.674 212.071 130.766C211.979 130.859 211.888 130.953 211.799 131.049L192.203 150.645C185.423 157.425 185.254 168.248 191.825 174.818C192.788 175.782 193.842 176.6 194.962 177.274L226.493 145.743C226.589 145.654 226.683 145.563 226.775 145.471C226.868 145.378 226.959 145.284 227.047 145.189C230.968 140.986 230.98 134.503 227.01 130.532C223.039 126.561 216.556 126.574 212.353 130.494Z" fill="white" fill-opacity="0.9"/>
<path d="M231.916 154.231C231.42 153.735 230.883 153.3 230.317 152.928C235.85 149.396 242.858 149.249 248.317 152.535L231.682 169.17C235.872 164.98 235.977 158.291 231.916 154.231Z" fill="white" fill-opacity="0.5"/>
<path d="M230.938 199.311C231.033 199.223 231.128 199.132 231.22 199.039C231.313 198.947 231.404 198.852 231.492 198.757L251.088 179.161C257.868 172.381 258.038 161.558 251.467 154.987C250.503 154.024 249.449 153.206 248.329 152.532L216.798 184.063C216.703 184.151 216.609 184.242 216.516 184.335C216.423 184.427 216.333 184.522 216.244 184.617C212.323 188.819 212.31 195.302 216.281 199.273C220.252 203.244 226.735 203.231 230.938 199.311L230.938 199.311Z" fill="white" fill-opacity="0.9"/>
<path d="M308.858 175.576C309.354 176.073 309.891 176.508 310.457 176.88C304.924 180.411 297.916 180.558 292.457 177.273L309.092 160.638C304.902 164.827 304.798 171.516 308.858 175.576Z" fill="white" fill-opacity="0.5"/>
<path d="M309.849 130.494C309.754 130.583 309.66 130.674 309.567 130.766C309.475 130.859 309.384 130.953 309.295 131.049L289.699 150.645C282.919 157.425 282.75 168.248 289.321 174.818C290.284 175.782 291.338 176.6 292.458 177.274L323.989 145.743C324.085 145.654 324.179 145.563 324.271 145.471C324.364 145.378 324.455 145.284 324.543 145.189C328.464 140.986 328.477 134.503 324.506 130.532C320.535 126.561 314.052 126.574 309.849 130.494Z" fill="white" fill-opacity="0.9"/>
<path d="M329.413 154.231C328.916 153.735 328.38 153.3 327.813 152.928C333.346 149.396 340.354 149.249 345.813 152.535L329.178 169.17C333.368 164.98 333.473 158.291 329.413 154.231Z" fill="white" fill-opacity="0.5"/>
<path d="M328.434 199.311C328.53 199.223 328.624 199.132 328.716 199.039C328.809 198.947 328.9 198.852 328.988 198.757L348.585 179.161C355.365 172.381 355.534 161.558 348.963 154.987C347.999 154.024 346.945 153.206 345.825 152.532L314.294 184.063C314.199 184.151 314.105 184.242 314.012 184.335C313.92 184.427 313.829 184.522 313.74 184.617C309.819 188.819 309.806 195.302 313.777 199.273C317.748 203.244 324.231 203.231 328.434 199.311L328.434 199.311Z" fill="white" fill-opacity="0.9"/>
<path d="M407.345 130.494C407.25 130.583 407.156 130.674 407.063 130.766C406.971 130.859 406.88 130.953 406.791 131.049L387.195 150.645C380.415 157.425 380.246 168.248 386.817 174.818C387.78 175.782 388.834 176.6 389.955 177.274L421.485 145.743C421.581 145.654 421.675 145.563 421.768 145.471C421.86 145.378 421.951 145.284 422.04 145.189C425.96 140.986 425.973 134.503 422.002 130.532C418.031 126.561 411.548 126.574 407.345 130.494Z" fill="white" fill-opacity="0.9"/>
<path d="M29.5764 308.755C30.0731 309.252 30.6094 309.686 31.1757 310.058C25.6428 313.59 18.6349 313.737 13.1758 310.451L29.8106 293.817C25.6212 298.006 25.5164 304.695 29.5764 308.755Z" fill="white" fill-opacity="0.5"/>
<path d="M30.568 263.673C30.4727 263.762 30.3785 263.853 30.2859 263.945C30.1934 264.038 30.1025 264.132 30.0139 264.227L10.4177 283.823C3.63772 290.603 3.46865 301.426 10.0394 307.997C11.003 308.961 12.0571 309.779 13.1772 310.452L44.7081 278.921C44.8035 278.833 44.8977 278.742 44.9902 278.649C45.0828 278.557 45.1736 278.463 45.2622 278.367C49.1825 274.165 49.1953 267.682 45.2244 263.711C41.2535 259.74 34.7708 259.753 30.568 263.673Z" fill="white" fill-opacity="0.9"/>
<path d="M50.1313 287.41C49.6347 286.913 49.0983 286.479 48.532 286.107C54.0649 282.575 61.0729 282.428 66.5319 285.714L49.8971 302.348C54.0865 298.159 54.1914 291.47 50.1313 287.41Z" fill="white" fill-opacity="0.5"/>
<path d="M49.153 332.49C49.2483 332.401 49.3426 332.31 49.4351 332.218C49.5277 332.125 49.6185 332.031 49.7071 331.936L69.3033 312.34C76.0833 305.56 76.2524 294.737 69.6817 288.166C68.7181 287.202 67.664 286.384 66.5438 285.711L35.0129 317.242C34.9176 317.33 34.8234 317.421 34.7308 317.514C34.6383 317.606 34.5474 317.7 34.4588 317.796C30.538 321.998 30.5252 328.481 34.4961 332.451C38.467 336.422 44.9497 336.41 49.1525 332.489L49.153 332.49Z" fill="white" fill-opacity="0.9"/>
<path d="M127.073 308.755C127.569 309.252 128.105 309.686 128.672 310.058C123.139 313.59 116.131 313.737 110.672 310.451L127.307 293.817C123.117 298.006 123.012 304.695 127.073 308.755Z" fill="white" fill-opacity="0.5"/>
<path d="M128.064 263.673C127.969 263.762 127.875 263.853 127.782 263.945C127.689 264.038 127.599 264.132 127.51 264.227L107.914 283.823C101.134 290.603 100.965 301.426 107.535 307.997C108.499 308.961 109.553 309.779 110.673 310.452L142.204 278.921C142.3 278.833 142.394 278.742 142.486 278.649C142.579 278.557 142.67 278.463 142.758 278.367C146.679 274.165 146.691 267.682 142.72 263.711C138.75 259.74 132.267 259.753 128.064 263.673Z" fill="white" fill-opacity="0.9"/>
<path d="M147.627 287.41C147.131 286.913 146.594 286.479 146.028 286.107C151.561 282.575 158.569 282.428 164.028 285.714L147.393 302.348C151.583 298.159 151.687 291.47 147.627 287.41Z" fill="white" fill-opacity="0.5"/>
<path d="M146.649 332.49C146.744 332.401 146.839 332.31 146.931 332.218C147.024 332.125 147.115 332.031 147.203 331.936L166.799 312.34C173.579 305.56 173.749 294.737 167.178 288.166C166.214 287.202 165.16 286.384 164.04 285.711L132.509 317.242C132.414 317.33 132.319 317.421 132.227 317.514C132.134 317.606 132.044 317.7 131.955 317.796C128.034 321.998 128.021 328.481 131.992 332.451C135.963 336.422 142.446 336.41 146.649 332.489L146.649 332.49Z" fill="white" fill-opacity="0.9"/>
<path d="M224.569 308.755C225.065 309.252 225.602 309.686 226.168 310.058C220.635 313.59 213.627 313.737 208.168 310.451L224.803 293.817C220.613 298.006 220.509 304.695 224.569 308.755Z" fill="white" fill-opacity="0.5"/>
<path d="M225.56 263.673C225.465 263.762 225.371 263.853 225.278 263.945C225.186 264.038 225.095 264.132 225.006 264.227L205.41 283.823C198.63 290.603 198.461 301.426 205.032 307.997C205.995 308.961 207.049 309.779 208.169 310.452L239.7 278.921C239.796 278.833 239.89 278.742 239.982 278.649C240.075 278.557 240.166 278.463 240.254 278.367C244.175 274.165 244.187 267.682 240.217 263.711C236.246 259.74 229.763 259.753 225.56 263.673Z" fill="white" fill-opacity="0.9"/>
<path d="M245.123 287.41C244.627 286.913 244.091 286.479 243.524 286.107C249.057 282.575 256.065 282.428 261.524 285.714L244.889 302.348C249.079 298.159 249.184 291.47 245.123 287.41Z" fill="white" fill-opacity="0.5"/>
<path d="M244.145 332.49C244.241 332.401 244.335 332.31 244.427 332.218C244.52 332.125 244.611 332.031 244.699 331.936L264.296 312.34C271.076 305.56 271.245 294.737 264.674 288.166C263.71 287.202 262.656 286.384 261.536 285.711L230.005 317.242C229.91 317.33 229.816 317.421 229.723 317.514C229.63 317.606 229.54 317.7 229.451 317.796C225.53 321.998 225.517 328.481 229.488 332.451C233.459 336.422 239.942 336.41 244.145 332.489L244.145 332.49Z" fill="white" fill-opacity="0.9"/>
<path d="M322.065 308.755C322.561 309.252 323.098 309.686 323.664 310.058C318.131 313.59 311.123 313.737 305.664 310.451L322.299 293.817C318.11 298.006 318.005 304.695 322.065 308.755Z" fill="white" fill-opacity="0.5"/>
<path d="M323.056 263.673C322.961 263.762 322.867 263.853 322.774 263.945C322.682 264.038 322.591 264.132 322.502 264.227L302.906 283.823C296.126 290.603 295.957 301.426 302.528 307.997C303.491 308.961 304.545 309.779 305.665 310.452L337.196 278.921C337.292 278.833 337.386 278.742 337.479 278.649C337.571 278.557 337.662 278.463 337.751 278.367C341.671 274.165 341.684 267.682 337.713 263.711C333.742 259.74 327.259 259.753 323.056 263.673Z" fill="white" fill-opacity="0.9"/>
<path d="M342.62 287.41C342.123 286.913 341.587 286.479 341.02 286.107C346.553 282.575 353.561 282.428 359.02 285.714L342.385 302.348C346.575 298.159 346.68 291.47 342.62 287.41Z" fill="white" fill-opacity="0.5"/>
<path d="M341.641 332.49C341.737 332.401 341.831 332.31 341.923 332.218C342.016 332.125 342.107 332.031 342.195 331.936L361.792 312.34C368.572 305.56 368.741 294.737 362.17 288.166C361.206 287.202 360.152 286.384 359.032 285.711L327.501 317.242C327.406 317.33 327.312 317.421 327.219 317.514C327.127 317.606 327.036 317.7 326.947 317.796C323.026 321.998 323.013 328.481 326.984 332.451C330.955 336.422 337.438 336.41 341.641 332.489L341.641 332.49Z" fill="white" fill-opacity="0.9"/>
</g>
</g>
<g clip-path="url(#clip1_1_41049)">
<circle cx="188" cy="816" r="540" fill="white"/>
</g>
<defs>
<clipPath id="clip0_1_41049">
<rect width="375" height="320" fill="white"/>
</clipPath>
<clipPath id="clip1_1_41049">
<rect width="375" height="44" fill="white" transform="translate(0 276)"/>
</clipPath>
</defs>
</svg>
