<svg width="49" height="48" viewBox="0 0 49 48" fill="none" xmlns="http://www.w3.org/2000/svg">
<circle cx="24.5" cy="24" r="24" fill="#FAE300"/>
<path d="M24.5 15C18.9767 15 14.5 18.4662 14.5 22.7444C14.5 25.5255 16.3964 27.9666 19.2409 29.3317C19.0337 30.098 18.4845 32.1027 18.3756 32.534C18.2409 33.0669 18.5777 33.0618 18.7953 32.9147C18.9663 32.803 21.5363 31.0927 22.6451 30.3518C23.2461 30.4381 23.8679 30.4837 24.5 30.4837C30.0233 30.4837 34.5 27.0175 34.5 22.7393C34.5 18.4662 30.0233 15 24.5 15Z" fill="#391B1B"/>
<path d="M20.4705 20.3418H17.5482C17.2736 20.3418 17.0508 20.5646 17.0508 20.8392C17.0508 21.1138 17.2736 21.3366 17.5482 21.3366H18.5016V24.8392C18.5016 24.9687 18.5534 25.0931 18.6466 25.1812C18.7347 25.2693 18.8591 25.3211 18.9886 25.3211H19.0974C19.2269 25.3211 19.3513 25.2693 19.4394 25.1812C19.5326 25.0879 19.5845 24.9636 19.5845 24.8392V21.3366H20.4808C20.7554 21.3366 20.9782 21.1138 20.9782 20.8392C20.9679 20.5646 20.7451 20.3418 20.4705 20.3418Z" fill="#FAE300"/>
<path d="M27.5016 24.3946H26.1441V20.8143C26.1441 20.5137 25.9006 20.2754 25.6053 20.2754C25.3047 20.2754 25.0664 20.5189 25.0664 20.8143V24.6692C25.0664 24.7003 25.0716 24.7262 25.0768 24.7573C25.0716 24.7832 25.0664 24.8142 25.0664 24.8453C25.0664 25.094 25.2685 25.2961 25.5172 25.2961H27.5068C27.7555 25.2961 27.9576 25.094 27.9576 24.8453C27.9524 24.5966 27.7503 24.3946 27.5016 24.3946Z" fill="#FAE300"/>
<path d="M31.8459 24.5552L30.3277 22.5655L31.6956 21.1977C31.8821 21.0111 31.8821 20.7106 31.6956 20.5241C31.5091 20.3376 31.2085 20.3376 31.022 20.5241L29.3277 22.2184V20.8143C29.3277 20.5137 29.0842 20.2754 28.7889 20.2754C28.4883 20.2754 28.25 20.5189 28.25 20.8143V24.7883C28.25 25.0889 28.4935 25.3272 28.7889 25.3272C29.0894 25.3272 29.3277 25.0837 29.3277 24.7883V23.5604L29.6334 23.2547L31.0687 25.1355C31.2293 25.3479 31.5298 25.3946 31.7422 25.2339C31.9598 25.0733 32.0065 24.7728 31.8459 24.5552Z" fill="#FAE300"/>
<path d="M24.6595 24.684L23.2035 20.6944L23.1984 20.6892C23.1051 20.4457 22.8357 20.2695 22.5144 20.2695C22.1569 20.2695 21.8667 20.4871 21.8046 20.7721C21.7942 20.7928 21.7838 20.8136 21.7787 20.8395L20.3434 24.684C20.2553 24.9379 20.3901 25.2125 20.6388 25.3006C20.8927 25.3887 21.1673 25.254 21.2553 25.0053L21.5041 24.2954H23.4989L23.7476 25.0053C23.8357 25.2592 24.1103 25.3887 24.3642 25.3006C24.618 25.2125 24.7476 24.9379 24.6595 24.684ZM21.8201 23.3939L22.4885 21.482C22.4937 21.482 22.5041 21.482 22.5092 21.482L23.1776 23.3939H21.8201Z" fill="#FAE300"/>
</svg>
