<svg width="49" height="48" viewBox="0 0 49 48" fill="none" xmlns="http://www.w3.org/2000/svg">
<circle cx="24.5" cy="24" r="24" fill="#25272F"/>
<path d="M25.7866 22.7132C25.104 22.0309 24.1785 21.6476 23.2134 21.6476C22.2483 21.6476 21.3227 22.0309 20.6401 22.7132L18.066 25.2864C17.3835 25.969 17 26.8948 17 27.8601C17 28.8254 17.3835 29.7512 18.066 30.4337C18.7486 31.1163 19.6744 31.4998 20.6397 31.4998C21.605 31.4998 22.5308 31.1163 23.2134 30.4337L24.5 29.1471" stroke="white" stroke-width="1.6" stroke-linecap="round" stroke-linejoin="round"/>
<path d="M23.2148 25.2866C23.8974 25.9689 24.823 26.3522 25.7881 26.3522C26.7532 26.3522 27.6788 25.9689 28.3613 25.2866L30.9354 22.7134C31.618 22.0308 32.0015 21.105 32.0015 20.1397C32.0015 19.1744 31.618 18.2486 30.9354 17.566C30.2528 16.8835 29.3271 16.5 28.3617 16.5C27.3964 16.5 26.4707 16.8835 25.7881 17.566L24.5015 18.8527" stroke="white" stroke-width="1.6" stroke-linecap="round" stroke-linejoin="round"/>
</svg>
