<svg width="24" height="24" viewBox="0 0 24 24" fill="none" xmlns="http://www.w3.org/2000/svg">
<rect width="24" height="24" fill="white"/>
<rect x="3" y="3" width="18" height="18" rx="3" fill="#F0F0F5"/>
<mask id="mask0_1_41345" style="mask-type:alpha" maskUnits="userSpaceOnUse" x="3" y="3" width="18" height="18">
<rect x="3" y="3" width="18" height="18" rx="3" fill="#F6F7FB"/>
</mask>
<g mask="url(#mask0_1_41345)">
<path fill-rule="evenodd" clip-rule="evenodd" d="M16.1477 8.85039L16.1477 12.0004C16.1477 12.4698 16.5282 12.8504 16.9977 12.8504C17.4671 12.8504 17.8477 12.4698 17.8477 12.0004L17.8477 8.20039C17.8477 7.62049 17.3776 7.15039 16.7977 7.15039L12.9977 7.15039C12.5282 7.15039 12.1477 7.53095 12.1477 8.00039C12.1477 8.46983 12.5282 8.85039 12.9977 8.85039L16.1477 8.85039Z" fill="#FF5A61"/>
<path fill-rule="evenodd" clip-rule="evenodd" d="M17.1005 9.10143L10.7066 15.4954C10.3161 15.8859 9.6829 15.8859 9.29237 15.4954L6.99948 13.2025L2.60052 17.6014L1.39844 16.3994L6.29237 11.5054C6.6829 11.1149 7.31606 11.1149 7.70659 11.5054L9.99948 13.7983L15.8984 7.89935L17.1005 9.10143Z" fill="#FF5A61"/>
</g>
</svg>
