<svg width="24" height="24" viewBox="0 0 24 24" fill="none" xmlns="http://www.w3.org/2000/svg">
<rect width="24" height="24" fill="white"/>
<path fill-rule="evenodd" clip-rule="evenodd" d="M16.1016 17C16.1016 16.2388 16.5025 15.5466 17.0638 15.0325C18.5611 13.6613 19.5 11.6903 19.5 9.5C19.5 5.35786 16.1421 2 12 2C7.85786 2 4.5 5.35786 4.5 9.5C4.5 11.8228 5.55594 13.899 7.21398 15.2747C7.73569 15.7076 8.10156 16.3221 8.10156 17H12H16.1016Z" fill="#FFE457"/>
<path d="M9.60156 9.9375L11.4766 11.8125L14.6016 8.6875" stroke="#FFB257" stroke-width="1.5" stroke-linecap="round" stroke-linejoin="round"/>
<path d="M8.10156 18H16.1016V19C16.1016 20.6569 14.7584 22 13.1016 22H11.1016C9.44471 22 8.10156 20.6569 8.10156 19V18Z" fill="#B9BCCC"/>
<rect x="8.10156" y="17" width="8" height="1.5" fill="#888CA0"/>
</svg>
