<svg width="36" height="36" viewBox="0 0 36 36" fill="none" xmlns="http://www.w3.org/2000/svg">
<g clip-path="url(#clip0_1_42563)">
<path d="M18 36C27.9411 36 36 27.9411 36 18C36 8.05888 27.9411 0 18 0C8.05888 0 0 8.05888 0 18C0 27.9411 8.05888 36 18 36Z" fill="url(#paint0_linear_1_42563)"/>
<path d="M18.0006 34.2857C26.9949 34.2857 34.2863 26.9943 34.2863 17.9999C34.2863 9.0056 26.9949 1.71423 18.0006 1.71423C9.00621 1.71423 1.71484 9.0056 1.71484 17.9999C1.71484 26.9943 9.00621 34.2857 18.0006 34.2857Z" fill="#F0F0F5"/>
<path d="M26.1509 25.0715C29.8575 25.0715 32.8623 22.0667 32.8623 18.3601C32.8623 14.6535 29.8575 11.6487 26.1509 11.6487C22.4443 11.6487 19.4395 14.6535 19.4395 18.3601C19.4395 22.0667 22.4443 25.0715 26.1509 25.0715Z" fill="white"/>
<path d="M24.3314 22.1918C26.4475 22.1918 28.1629 20.4764 28.1629 18.3604C28.1629 16.2443 26.4475 14.5289 24.3314 14.5289C22.2154 14.5289 20.5 16.2443 20.5 18.3604C20.5 20.4764 22.2154 22.1918 24.3314 22.1918Z" fill="#282828"/>
<path d="M22.9127 18.5398C23.7079 18.5398 24.3527 17.8951 24.3527 17.0998C24.3527 16.3045 23.7079 15.6598 22.9127 15.6598C22.1174 15.6598 21.4727 16.3045 21.4727 17.0998C21.4727 17.8951 22.1174 18.5398 22.9127 18.5398Z" fill="white"/>
<path d="M9.8501 25.0718C13.5567 25.0718 16.5615 22.067 16.5615 18.3604C16.5615 14.6537 13.5567 11.6489 9.8501 11.6489C6.14348 11.6489 3.13867 14.6537 3.13867 18.3604C3.13867 22.067 6.14348 25.0718 9.8501 25.0718Z" fill="white"/>
<path d="M11.6674 22.1919C13.7834 22.1919 15.4988 20.4765 15.4988 18.3605C15.4988 16.2444 13.7834 14.5291 11.6674 14.5291C9.55133 14.5291 7.83594 16.2444 7.83594 18.3605C7.83594 20.4765 9.55133 22.1919 11.6674 22.1919Z" fill="#282828"/>
<path d="M13.0904 18.5399C13.8857 18.5399 14.5304 17.8952 14.5304 17.0999C14.5304 16.3046 13.8857 15.6599 13.0904 15.6599C12.2951 15.6599 11.6504 16.3046 11.6504 17.0999C11.6504 17.8952 12.2951 18.5399 13.0904 18.5399Z" fill="white"/>
<path d="M19.922 21.9426C19.7506 22.8512 18.9706 23.5369 18.002 23.5369C17.0335 23.5369 16.2535 22.8512 16.082 21.9426H19.9135H19.922Z" fill="#FF8484"/>
</g>
<defs>
<linearGradient id="paint0_linear_1_42563" x1="5.57143" y1="4.28571" x2="32.1429" y2="30.8571" gradientUnits="userSpaceOnUse">
<stop stop-color="#576DFC"/>
<stop offset="1" stop-color="#42F4BE"/>
</linearGradient>
<clipPath id="clip0_1_42563">
<rect width="36" height="36" fill="white"/>
</clipPath>
</defs>
</svg>
