<svg width="67" height="18" viewBox="0 0 67 18" fill="none" xmlns="http://www.w3.org/2000/svg">
<g opacity="0.9">
<path d="M11.7109 1.62299L11.7109 1.62299L3.05511 8.20551L3.03586 8.22146C3.03586 8.22146 3.03586 8.22146 3.03586 8.22147C3.46232 8.73634 3.97859 9.12964 4.58472 9.40166C5.18851 9.67301 5.96691 9.94774 6.91988 10.2254C7.61872 10.4303 8.17185 10.6165 8.58015 10.784C8.98671 10.9512 9.32252 11.162 9.58762 11.415C9.85008 11.6658 9.98164 11.9843 9.98164 12.3729C9.98164 12.9785 9.73255 13.4499 9.23393 13.7887C8.73381 14.1286 8.04019 14.2997 7.15035 14.2997C6.30635 14.2997 5.4171 14.096 4.48238 13.6876L4.47238 13.7105L4.48238 13.6876C3.54799 13.2796 2.72482 12.7183 2.01299 12.0039L1.99031 11.9812L1.97382 12.0087L0.478544 14.509L0.468354 14.5261L0.482643 14.5398C1.27356 15.3028 2.22875 15.9075 3.34727 16.3545C4.46604 16.8019 5.615 17.0252 6.83802 17.0252C8.06074 17.0252 9.16535 16.8164 10.1507 16.3981C11.1362 15.9798 11.9136 15.3777 12.482 14.5913C13.0506 13.8044 13.3348 12.8741 13.3348 11.802C13.3348 10.9641 13.1216 10.2821 12.6931 9.75738L12.6931 9.75737C12.2667 9.23579 11.754 8.83492 11.1556 8.55529L11.1556 8.55528C10.559 8.27712 9.78399 7.99142 8.83156 7.69861L8.82421 7.72251L8.83155 7.69861C8.11773 7.47936 7.56424 7.28975 7.17122 7.129L7.17119 7.12898C6.77951 6.96941 6.45147 6.75881 6.18633 6.49822C5.92362 6.23977 5.79205 5.91743 5.79205 5.52891C5.79205 5.02655 6.01384 4.63557 6.46098 4.35483L6.46098 4.35483C6.9095 4.07307 7.50304 3.93095 8.24414 3.93095C8.88042 3.93095 9.60702 4.05863 10.4237 4.3137C11.2396 4.56911 12.0187 4.93716 12.761 5.41844L12.7832 5.43285L12.7963 5.40985L14.247 2.86547L14.2583 2.8457L14.2396 2.83263C13.5083 2.31952 12.665 1.91629 11.7109 1.62299Z" fill="white" stroke="white" stroke-width="0.05"/>
<path d="M19.274 17.0135C20.774 17.0135 21.9595 16.4752 22.8274 15.3973L22.5358 16.9722L22.5304 17.0018H22.5604H25.2888H25.3094L25.3133 16.9816L27.4837 5.98311L27.4896 5.95327H27.4591H24.7722H24.7518L24.7477 5.97317L23.5488 11.722L23.5488 11.722C23.3704 12.5843 22.9839 13.2766 22.3889 13.8008C21.794 14.3249 21.1075 14.5868 20.3282 14.5868C19.643 14.5868 19.1124 14.4122 18.7328 14.0653L18.7328 14.0652C18.353 13.719 18.1622 13.2452 18.1622 12.6415C18.1622 12.4267 18.1827 12.2113 18.2238 11.9961C18.2238 11.9961 18.2238 11.996 18.2238 11.996L19.4434 5.98324L19.4494 5.95327H19.4189H16.7112H16.6908L16.6867 5.97329L15.3846 12.372C15.3846 12.372 15.3846 12.3721 15.3846 12.3721C15.3018 12.7529 15.2602 13.1271 15.2602 13.4946C15.2602 14.546 15.601 15.3883 16.2846 16.0189H16.2834L16.3326 16.0626C17.048 16.6976 18.0298 17.0135 19.274 17.0135Z" fill="white" stroke="white" stroke-width="0.05"/>
<path d="M37.0826 16.3983C36.0681 15.988 35.2762 15.4521 34.7076 14.7905L34.6952 14.776L34.7058 14.7603L35.9556 12.8958L35.9732 12.8696L35.9947 12.8926C36.4976 13.4311 37.1348 13.875 37.906 14.2248L37.8957 14.2476L37.906 14.2248C38.6771 14.5748 39.4025 14.7489 40.0828 14.7489C40.6299 14.7489 41.0633 14.6364 41.3852 14.4133C41.7061 14.191 41.8654 13.8952 41.8654 13.5236C41.8654 13.1973 41.7069 12.9265 41.3855 12.7109C41.0604 12.4931 40.5565 12.2527 39.8729 11.9897L39.8725 11.9896C39.1877 11.7119 38.6251 11.4554 38.1851 11.2209M37.0826 16.3983L38.1969 11.1988M37.0826 16.3983L37.0826 16.3984C38.097 16.8093 39.134 17.0144 40.194 17.0144C41.0896 17.0144 41.8889 16.8569 42.5921 16.5407C43.2947 16.2248 43.8414 15.7871 44.2314 15.2271C44.6214 14.6672 44.8162 14.026 44.8162 13.3046C44.8162 12.657 44.6513 12.1139 44.3202 11.6774L44.3202 11.6774C43.9908 11.2437 43.6015 10.9046 43.1518 10.6615C42.7044 10.4197 42.1232 10.1525 41.4088 9.85974C40.7096 9.5675 40.2054 9.32328 39.895 9.12704C39.5886 8.93339 39.438 8.68101 39.438 8.36942C39.438 8.05731 39.5852 7.79363 39.8851 7.5781L39.8851 7.57809C40.1846 7.36246 40.5626 7.25367 41.0197 7.25367C41.5214 7.25367 42.0983 7.38099 42.7514 7.63586L37.0826 16.3983ZM38.1851 11.2209L38.1969 11.1988M38.1851 11.2209C38.1851 11.2209 38.1851 11.2209 38.1851 11.2209L38.1969 11.1988M38.1851 11.2209C37.7427 10.9854 37.3642 10.6537 37.0498 10.2265M38.1969 11.1988C37.758 10.9652 37.3822 10.636 37.0699 10.2117M37.0498 10.2265L37.0699 10.2117M37.0498 10.2265C36.7337 9.79766 36.5763 9.26563 36.5763 8.63257C36.5763 7.91184 36.7633 7.27774 37.1385 6.73203M37.0498 10.2265C37.0498 10.2265 37.0498 10.2265 37.0498 10.2265L37.0699 10.2117M37.0699 10.2117L37.1385 6.73203M37.1385 6.73203L37.1591 6.74619L37.1385 6.73203C37.1385 6.73203 37.1385 6.73203 37.1385 6.73203Z" fill="white" stroke="white" stroke-width="0.05"/>
<path d="M51.0474 17.0135C52.5475 17.0135 53.733 16.4752 54.6008 15.3973L54.3093 16.9722L54.3038 17.0018H54.3339H57.0622H57.0828L57.0868 16.9816L59.2571 5.98311L59.263 5.95327H59.2326H56.5456H56.5253L56.5211 5.97317L55.3222 11.722L55.3222 11.722C55.1438 12.5843 54.7573 13.2766 54.1624 13.8008C53.5674 14.3249 52.8809 14.5868 52.1017 14.5868C51.4165 14.5868 50.8859 14.4122 50.5062 14.0653L50.5062 14.0652C50.1265 13.719 49.9356 13.2452 49.9356 12.6415C49.9356 12.4267 49.9562 12.2113 49.9973 11.9961C49.9973 11.9961 49.9973 11.996 49.9973 11.996L51.2168 5.98324L51.2229 5.95327H51.1923H48.4846H48.4642L48.4601 5.97329L47.1581 12.372C47.1581 12.372 47.1581 12.3721 47.1581 12.3721C47.0752 12.7529 47.0336 13.1271 47.0336 13.4946C47.0336 14.546 47.3744 15.3883 48.058 16.0189H48.0568L48.1061 16.0626C48.8215 16.6976 49.8032 17.0135 51.0474 17.0135Z" fill="white" stroke="white" stroke-width="0.05"/>
<path d="M66.5254 1.00481L66.5316 0.974756H66.5009H63.5998H63.5794L63.5753 0.994698L60.2724 16.9823L60.2662 17.0124H60.2969H63.198H63.2184L63.2225 16.9924L66.5254 1.00481Z" fill="white" stroke="white" stroke-width="0.05"/>
<path d="M34.7519 1.00481L34.7581 0.974756H34.7275H31.8263H31.806L31.8018 0.994698L28.499 16.9823L28.4927 17.0124H28.5234H31.4246H31.4449L31.4491 16.9924L34.7519 1.00481Z" fill="white" stroke="white" stroke-width="0.05"/>
</g>
</svg>
