<svg width="286" height="182" viewBox="0 0 286 182" fill="none" xmlns="http://www.w3.org/2000/svg">
<g filter="url(#filter0_d_1_41019)">
<g filter="url(#filter1_d_1_41019)">
<path d="M52.7098 73.7165V89.7346C48.4438 90.1998 44.1841 90.7026 39.9308 91.2404V74.4694C35.9511 74.7221 31.9714 74.991 27.998 75.2788V63.5576C37.4018 63.3344 46.8087 63.1435 56.2156 62.9741C60.0394 62.9741 64.315 62.7482 67.5471 60.8175V27.6519C71.8322 28.0364 76.1237 28.3887 80.4184 28.714V87.1075C76.1237 87.4355 71.8354 87.7959 67.5471 88.1858V70.7452C64.0191 72.9689 59.4381 73.3669 55.1753 73.582C54.1891 73.6358 53.696 73.66 52.7098 73.7138V73.7165ZM47.6612 53.552C43.5479 57.9457 36.2438 60.3255 29.8368 60.9681V49.1152C35.1367 48.6796 39.934 46.0713 40.9584 41.4059C37.4845 41.1881 34.0106 40.9649 30.5367 40.731V29.2733C34.1156 29.6767 37.6976 30.0639 41.2797 30.4377V23C45.3421 23.527 49.4141 24.0191 53.4892 24.4789V31.602C57.0427 31.9085 60.5993 32.2043 64.1559 32.4866V42.6482C60.7297 42.4869 57.3035 42.3175 53.8774 42.14C54.8667 46.6897 60.2494 48.7737 65.1326 49.298V59.75C59.0946 59.4408 51.466 57.9618 47.6612 53.5546V53.552Z" fill="url(#paint0_linear_1_41019)"/>
<path d="M122.618 64.9813V73.3359C118.41 73.4273 114.201 73.5295 109.995 73.6478V65.1265C102.357 65.2287 94.7189 65.3497 87.084 65.4895V56.3094C105.494 56.3685 123.904 56.4062 142.313 56.4277V64.8253C135.747 64.8657 129.184 64.9167 122.618 64.9813ZM90.7392 30.1001C106.766 31.0869 122.803 31.5989 138.865 31.9995V40.3558C133.043 40.259 127.222 40.1407 121.397 40.0008C123.49 45.4299 134.147 45.6961 139.492 45.7929V53.8786C131.465 53.8813 121.524 52.6927 114.967 48.506C108.23 52.7734 98.1642 53.6742 90.0203 53.5613V44.806C95.2884 44.9512 106.362 45.1448 108.44 39.6271C102.538 39.4308 96.6372 39.2076 90.7392 38.9602V30.1001ZM103.639 76.8638C115.671 76.4336 127.705 76.1216 139.746 75.9146V84.4413C123.388 84.8554 107.059 85.5572 90.7392 86.614V68.6544C95.0402 68.5468 99.3381 68.4473 103.639 68.3586V76.8638Z" fill="url(#paint1_linear_1_41019)"/>
<path d="M168.511 72.7151V85.5119C164.376 85.3371 160.24 85.1838 156.101 85.0494V72.4651C152.86 72.4086 149.615 72.3602 146.373 72.3172V63.3468C164.605 63.4436 182.836 63.6184 201.068 63.89V73.7235C197.737 73.5917 194.41 73.468 191.079 73.3551V86.6977C186.876 86.4315 182.671 86.1922 178.462 85.9744V72.9625C175.147 72.8711 171.829 72.785 168.514 72.7098L168.511 72.7151ZM148.008 45.6642C148.008 42.4832 149.201 39.2672 151.791 36.8794C157.259 31.9478 166.151 30.9691 173.477 30.641C180.708 30.3156 189.902 30.4339 195.514 35.2956C198.297 37.7856 199.439 41.2409 199.433 44.5779C199.426 47.974 198.233 51.4508 195.514 54.043C189.997 59.1601 180.902 59.8431 173.477 59.8189C166.243 59.7947 157.307 59.1359 151.791 54.3011C149.198 51.9725 148.008 48.7995 148.008 45.6615V45.6642ZM160.561 45.4948C160.561 46.8447 161.201 47.8476 162.289 48.6812C165.457 50.7517 169.847 50.749 173.48 50.706C177.186 50.663 181.624 50.55 184.761 48.337C185.932 47.4362 186.517 46.366 186.517 44.957C186.517 43.548 185.932 42.4482 184.761 41.6066C181.567 39.528 177.123 39.649 173.48 39.7593C169.8 39.8695 165.419 40.0497 162.289 42.2008C161.201 43.0694 160.561 44.0912 160.561 45.4975V45.4948Z" fill="url(#paint2_linear_1_41019)"/>
<path d="M215.967 31.154V26.1633C220.272 25.768 224.573 25.3405 228.87 24.878V30.0731C232.306 29.7531 235.742 29.4223 239.174 29.0781V36.0291C241.137 35.8758 242.117 35.7978 244.074 35.6392V24.9533C248.298 24.4397 252.52 23.8858 256.732 23.2942V65.855C252.513 65.7152 248.295 65.5834 244.074 65.4624V60.3991C241.888 60.3776 240.79 60.3669 238.592 60.3453V54.634C238.077 57.089 236.849 59.1219 235.036 60.6492C231.845 63.4645 226.726 64.2255 222.362 64.2013C217.873 64.1744 212.936 62.9778 209.63 60.426C207.114 58.4846 205.768 55.5671 205.775 52.6576C205.778 49.7374 207.152 46.8306 209.63 44.8462C212.923 42.2137 217.889 40.6702 222.362 40.6245C226.901 40.5788 231.428 40.9768 235.036 43.7948C236.979 45.3813 238.271 47.5701 238.723 50.2107C240.867 50.1542 241.939 50.1246 244.074 50.0628V46.0401C241.888 46.1342 240.79 46.1799 238.592 46.2713V38.589C227.203 39.3473 215.808 39.9738 204.4 40.4928V31.9849C208.259 31.7295 212.115 31.4525 215.967 31.1567V31.154ZM208.848 76.8959C208.838 74.0375 210.251 71.2491 212.964 69.4717C218.675 65.7421 226.962 65.5942 233.61 65.7797C240.479 65.9706 248.826 66.6805 254.059 71.2491C256.824 73.6933 257.985 77.1164 257.998 80.405C258.01 83.4704 256.961 86.7805 254.059 88.8402C248.53 92.6451 239.932 91.7578 233.61 91.0371C226.666 90.2466 218.496 88.9854 212.964 84.7584C210.327 82.7497 208.857 79.8726 208.848 76.8959ZM226.726 52.3403C226.726 51.5578 226.469 50.735 225.947 50.2698C225.237 49.6379 223.93 49.283 222.365 49.3233C220.8 49.3636 219.492 49.7804 218.776 50.4338C218.251 50.9125 217.994 51.7219 217.994 52.4855C217.994 53.311 218.255 54.115 218.776 54.5775C219.489 55.2067 220.8 55.5832 222.365 55.5724C223.93 55.5617 225.234 55.1637 225.947 54.5076C226.472 54.0236 226.726 53.1927 226.726 52.343V52.3403ZM245.55 79.3186C245.55 78.6894 245.292 78.1812 244.78 77.794C241.675 75.9225 237.224 75.8472 233.61 75.6025C230.257 75.3766 225.594 74.9356 222.428 76.3151C221.907 76.6082 221.582 77.0384 221.582 77.6165C221.582 78.1947 221.907 78.6652 222.428 79.0202C225.486 80.7465 230.117 80.9535 233.61 81.2144C237.088 81.4752 241.49 82.134 244.78 80.7142C245.295 80.4104 245.55 79.9452 245.55 79.3159V79.3186Z" fill="url(#paint3_linear_1_41019)"/>
</g>
<g filter="url(#filter2_d_1_41019)">
<path d="M68.7762 117.023C72.2959 116.596 75.8179 116.196 79.347 115.817V124.31C75.8203 124.689 72.2959 125.091 68.7762 125.516V137.043C71.0553 136.761 72.2008 136.625 74.4942 136.366C78.9841 135.782 81.2038 135.299 82.8667 134.705L82.798 143.522C81.2038 144.005 77.1511 144.689 74.1757 145.006C68.7335 145.64 63.3102 146.34 57.8965 147.112V98.8561C65.4491 97.7773 73.0231 96.8532 80.6256 96.0528V104.656C76.6687 105.06 72.7189 105.511 68.7762 105.996V117.025V117.023ZM83.7875 121.532V114.477C85.5533 114.296 86.4397 114.209 88.2102 114.038V95.9801C91.7014 95.6534 95.1925 95.3498 98.686 95.0637V143.714C95.1901 144.001 91.699 144.306 88.2102 144.631V123.026C86.4397 123.196 85.5556 123.283 83.7875 123.465V121.532ZM101.985 145.119V95.5846C109.874 94.8344 105.621 95.15 112.848 94.6663V144.369C109.224 144.599 105.604 144.848 101.985 145.119Z" fill="url(#paint4_linear_1_41019)" stroke="url(#paint5_linear_1_41019)" stroke-width="1.14833" stroke-miterlimit="10"/>
<path d="M116.717 135.401C134.595 134.51 152.146 134.467 170.027 135.326V144.37C152.146 143.509 134.595 143.554 116.717 144.445V135.401ZM143.367 116.482C137.82 122.717 127.29 126.574 118.183 127.802V118.758C130.021 116.146 137.352 109.652 137.176 99.3763V93.8029C141.276 93.6927 145.321 93.6541 149.42 93.7585V99.3318C149.458 109.576 156.614 116.096 168.563 118.684V127.728C159.48 126.394 148.983 122.688 143.37 116.48L143.367 116.482Z" fill="url(#paint6_linear_1_41019)" stroke="url(#paint7_linear_1_41019)" stroke-width="1.14833" stroke-miterlimit="10"/>
<path d="M174.432 135.417C192.603 136.492 207.534 137.225 225.486 139.783V149C207.534 146.442 192.605 145.536 174.432 144.461V135.417Z" fill="url(#paint8_linear_1_41019)"/>
<path d="M188.995 108.298C200.808 109.019 210.527 110.29 222.254 111.647V119.894C210.527 118.535 201.024 117.62 189.211 116.899L189.324 121.42C201.604 122.168 210.07 123.299 222.254 124.745V133.478C205.853 131.533 193.299 130.318 176.748 129.597V95.1371C194.615 95.6222 212.746 96.9448 222.254 98.5328V106.88C210.3 105.478 200.927 104.453 188.88 103.719L188.995 108.298Z" fill="url(#paint9_linear_1_41019)"/>
<path d="M174.432 135.417C192.603 136.492 207.534 137.225 225.486 139.783V149C207.534 146.442 192.605 145.536 174.432 144.461V135.417Z" stroke="url(#paint10_linear_1_41019)" stroke-width="1.14833" stroke-miterlimit="10"/>
<path d="M188.995 108.298C200.808 109.019 210.527 110.29 222.254 111.647V119.894C210.527 118.535 201.024 117.62 189.211 116.899L189.324 121.42C201.604 122.168 210.07 123.299 222.254 124.745V133.478C205.853 131.533 193.299 130.318 176.748 129.597V95.1371C194.615 95.6222 212.746 96.9448 222.254 98.5328V106.88C210.3 105.478 200.927 104.453 188.88 103.719L188.995 108.298Z" stroke="url(#paint11_linear_1_41019)" stroke-width="1.14833" stroke-miterlimit="10"/>
</g>
</g>
<defs>
<filter id="filter0_d_1_41019" x="0.386913" y="-0.00927782" width="285.222" height="181.884" filterUnits="userSpaceOnUse" color-interpolation-filters="sRGB">
<feFlood flood-opacity="0" result="BackgroundImageFix"/>
<feColorMatrix in="SourceAlpha" type="matrix" values="0 0 0 0 0 0 0 0 0 0 0 0 0 0 0 0 0 0 127 0" result="hardAlpha"/>
<feOffset dy="4.60186"/>
<feGaussianBlur stdDeviation="13.8056"/>
<feComposite in2="hardAlpha" operator="out"/>
<feColorMatrix type="matrix" values="0 0 0 0 0.103451 0 0 0 0 0.131258 0 0 0 0 0.31664 0 0 0 0.3 0"/>
<feBlend mode="normal" in2="BackgroundImageFix" result="effect1_dropShadow_1_41019"/>
<feBlend mode="normal" in="SourceGraphic" in2="effect1_dropShadow_1_41019" result="shape"/>
</filter>
<filter id="filter1_d_1_41019" x="4.98877" y="4.59258" width="276.019" height="114.692" filterUnits="userSpaceOnUse" color-interpolation-filters="sRGB">
<feFlood flood-opacity="0" result="BackgroundImageFix"/>
<feColorMatrix in="SourceAlpha" type="matrix" values="0 0 0 0 0 0 0 0 0 0 0 0 0 0 0 0 0 0 127 0" result="hardAlpha"/>
<feOffset dy="4.60186"/>
<feGaussianBlur stdDeviation="11.5046"/>
<feComposite in2="hardAlpha" operator="out"/>
<feColorMatrix type="matrix" values="0 0 0 0 0.314559 0 0 0 0 0.32025 0 0 0 0 0.49668 0 0 0 0.1 0"/>
<feBlend mode="normal" in2="BackgroundImageFix" result="effect1_dropShadow_1_41019"/>
<feBlend mode="normal" in="SourceGraphic" in2="effect1_dropShadow_1_41019" result="shape"/>
</filter>
<filter id="filter2_d_1_41019" x="34.313" y="74.7156" width="214.757" height="102.557" filterUnits="userSpaceOnUse" color-interpolation-filters="sRGB">
<feFlood flood-opacity="0" result="BackgroundImageFix"/>
<feColorMatrix in="SourceAlpha" type="matrix" values="0 0 0 0 0 0 0 0 0 0 0 0 0 0 0 0 0 0 127 0" result="hardAlpha"/>
<feOffset dy="4.60186"/>
<feGaussianBlur stdDeviation="11.5046"/>
<feComposite in2="hardAlpha" operator="out"/>
<feColorMatrix type="matrix" values="0 0 0 0 0.314559 0 0 0 0 0.32025 0 0 0 0 0.49668 0 0 0 0.1 0"/>
<feBlend mode="normal" in2="BackgroundImageFix" result="effect1_dropShadow_1_41019"/>
<feBlend mode="normal" in="SourceGraphic" in2="effect1_dropShadow_1_41019" result="shape"/>
</filter>
<linearGradient id="paint0_linear_1_41019" x1="54.2082" y1="23" x2="54.2082" y2="91.2404" gradientUnits="userSpaceOnUse">
<stop stop-color="white"/>
<stop offset="1" stop-color="#9DFFFC"/>
</linearGradient>
<linearGradient id="paint1_linear_1_41019" x1="114.699" y1="30.1001" x2="114.699" y2="86.614" gradientUnits="userSpaceOnUse">
<stop stop-color="white"/>
<stop offset="1" stop-color="#9DFFFC"/>
</linearGradient>
<linearGradient id="paint2_linear_1_41019" x1="173.72" y1="30.5331" x2="173.72" y2="86.6977" gradientUnits="userSpaceOnUse">
<stop stop-color="white"/>
<stop offset="1" stop-color="#9DFFFC"/>
</linearGradient>
<linearGradient id="paint3_linear_1_41019" x1="231.199" y1="23.2942" x2="231.199" y2="91.6734" gradientUnits="userSpaceOnUse">
<stop stop-color="white"/>
<stop offset="1" stop-color="#9DFFFC"/>
</linearGradient>
<linearGradient id="paint4_linear_1_41019" x1="85.3721" y1="94.6663" x2="85.3721" y2="147.112" gradientUnits="userSpaceOnUse">
<stop stop-color="white"/>
<stop offset="1" stop-color="#8AFFFD"/>
</linearGradient>
<linearGradient id="paint5_linear_1_41019" x1="85.3721" y1="94.6663" x2="85.3721" y2="147.112" gradientUnits="userSpaceOnUse">
<stop stop-color="white"/>
<stop offset="1" stop-color="#8AFFFD"/>
</linearGradient>
<linearGradient id="paint6_linear_1_41019" x1="143.372" y1="93.6973" x2="143.372" y2="144.445" gradientUnits="userSpaceOnUse">
<stop stop-color="white"/>
<stop offset="1" stop-color="#8AFFFD"/>
</linearGradient>
<linearGradient id="paint7_linear_1_41019" x1="143.372" y1="93.6973" x2="143.372" y2="144.445" gradientUnits="userSpaceOnUse">
<stop stop-color="white"/>
<stop offset="1" stop-color="#8AFFFD"/>
</linearGradient>
<linearGradient id="paint8_linear_1_41019" x1="199.959" y1="95.1371" x2="199.959" y2="149" gradientUnits="userSpaceOnUse">
<stop stop-color="white"/>
<stop offset="1" stop-color="#8AFFFD"/>
</linearGradient>
<linearGradient id="paint9_linear_1_41019" x1="199.959" y1="95.1371" x2="199.959" y2="149" gradientUnits="userSpaceOnUse">
<stop stop-color="white"/>
<stop offset="1" stop-color="#8AFFFD"/>
</linearGradient>
<linearGradient id="paint10_linear_1_41019" x1="199.959" y1="95.1371" x2="199.959" y2="149" gradientUnits="userSpaceOnUse">
<stop stop-color="white"/>
<stop offset="1" stop-color="#8AFFFD"/>
</linearGradient>
<linearGradient id="paint11_linear_1_41019" x1="199.959" y1="95.1371" x2="199.959" y2="149" gradientUnits="userSpaceOnUse">
<stop stop-color="white"/>
<stop offset="1" stop-color="#8AFFFD"/>
</linearGradient>
</defs>
</svg>
